# xmcd
#
# Track frame offsets:
#	150
#	14601
#	33292
#	56109
#	74551
#	89635
#	105542
#	124899
#	146968
#	164666
#	184280
#	200616
#
# Disc length: 2981 seconds
#
# Revision: 0
# Processed by: cddbd v1.5.2PL0 Copyright (c) Steve Scherf et al.
# Submitted via: EasyCDDAExtractor 10.0.1.1
#
DISCID=c00ba30c
DTITLE=Tamyra Gray - The Dreamer
DYEAR=2004
DGENRE=R&B
TTITLE0=Star
TTITLE1=The Only Thing
TTITLE2=Legend
TTITLE3=Raindrops Will Fall
TTITLE4=Ha Ha
TTITLE5=17
TTITLE6=Don't Stop (Keep it Coming)
TTITLE7=U've Only Got 1
TTITLE8=Faces
TTITLE9=Like a Child
TTITLE10=Yesterday/Today
TTITLE11=Good Ol' Days
EXTD=
EXTT0=
EXTT1=
EXTT2=
EXTT3=
EXTT4=
EXTT5=
EXTT6=
EXTT7=
EXTT8=
EXTT9=
EXTT10=
EXTT11=
PLAYORDER=
